<?xml version="1.0" encoding="UTF-8" standalone="no"?>
<svg width="40px" height="40px" viewBox="0 0 40 40" version="1.1" xmlns="http://www.w3.org/2000/svg" xmlns:xlink="http://www.w3.org/1999/xlink" xmlns:sketch="http://www.bohemiancoding.com/sketch/ns">
    <title>noun_56937_cc</title>
    <description>Created with Sketch (http://www.bohemiancoding.com/sketch)</description>
    <defs></defs>
    <g id="Page-1" stroke="none" stroke-width="1" fill="none" fill-rule="evenodd" sketch:type="MSPage">
        <g id="noun_56937_cc" sketch:type="MSLayerGroup" fill="#FFFFFF">
            <path d="M38,4 L2,4 C0.896,4 0,3.104 0,2 C0,0.896 0.896,0 2,0 L38,0 C39.104,0 40,0.896 40,2 C40,3.104 39.104,4 38,4 L38,4 Z" id="Shape" sketch:type="MSShapeGroup"></path>
            <path d="M38,22 L2,22 C0.896,22 0,21.104 0,20 C0,18.896 0.896,18 2,18 L38,18 C39.104,18 40,18.896 40,20 C40,21.104 39.104,22 38,22 L38,22 Z" id="Shape" sketch:type="MSShapeGroup"></path>
            <path d="M38,40 L2,40 C0.896,40 0,39.104 0,38 C0,36.896 0.896,36 2,36 L38,36 C39.104,36 40,36.896 40,38 C40,39.104 39.104,40 38,40 L38,40 Z" id="Shape" sketch:type="MSShapeGroup"></path>
        </g>
    </g>
</svg>