<?xml version="1.0" encoding="UTF-8" standalone="no"?>
<svg width="47px" height="47px" viewBox="0 0 47 47" version="1.1" xmlns="http://www.w3.org/2000/svg" xmlns:xlink="http://www.w3.org/1999/xlink" xmlns:sketch="http://www.bohemiancoding.com/sketch/ns">
    <title>Slice 1</title>
    <description>Created with Sketch (http://www.bohemiancoding.com/sketch)</description>
    <defs></defs>
    <g id="Page-1" stroke="none" stroke-width="1" fill="none" fill-rule="evenodd" sketch:type="MSPage">
        <g id="noun_15028" sketch:type="MSLayerGroup" transform="translate(0.000000, 1.000000)" fill="#FFFFFF">
            <g id="XMLID_13_" sketch:type="MSShapeGroup">
                <g id="XMLID_10_">
                    <path d="M40.902,45.704 L29.967,34.769 C26.97,36.73 23.388,37.88 19.523,37.88 C8.984,37.88 0.461,29.338 0.461,18.799 C0.461,8.28 8.983,-0.262 19.523,-0.262 C30.044,-0.262 38.583,8.28 38.583,18.799 C38.583,22.478 37.547,25.906 35.755,28.81 L46.768,39.821 C47.351,40.388 46.862,41.802 45.692,42.969 L44.052,44.613 C42.882,45.78 41.468,46.269 40.902,45.704 L40.902,45.704 Z M32.249,18.799 C32.249,11.766 26.554,6.072 19.522,6.072 C12.489,6.072 6.777,11.766 6.777,18.799 C6.777,25.832 12.489,31.544 19.522,31.544 C26.554,31.544 32.249,25.833 32.249,18.799 L32.249,18.799 Z" id="Shape"></path>
                </g>
            </g>
        </g>
    </g>
</svg>